<?xml version="1.0" encoding="utf-8"?>
<!-- Generator: Adobe Illustrator 18.0.0, SVG Export Plug-In . SVG Version: 6.00 Build 0)  -->
<!DOCTYPE svg PUBLIC "-//W3C//DTD SVG 1.1//EN" "http://www.w3.org/Graphics/SVG/1.1/DTD/svg11.dtd">
<svg version="1.1" id="Layer_1" xmlns="http://www.w3.org/2000/svg" xmlns:xlink="http://www.w3.org/1999/xlink" x="0px" y="0px"
	 viewBox="0 0 149.3 175.7" enable-background="new 0 0 149.3 175.7" xml:space="preserve">
<g>
	<g>
		<circle fill="#28C3B1" cx="75" cy="102.3" r="48.2"/>
		<path fill="#FFFFFF" d="M75,54.1c26.6,0,48.2,21.6,48.2,48.2s-21.6,48.2-48.2,48.2s-48.2-21.6-48.2-48.2S48.4,54.1,75,54.1
			 M75,50.1c-28.8,0-52.2,23.4-52.2,52.2s23.4,52.2,52.2,52.2s52.2-23.4,52.2-52.2S103.8,50.1,75,50.1L75,50.1z"/>
	</g>
	<g>
		<path fill="#FFFFFF" d="M75,12c-18.6,0-33.7,15.1-33.7,33.7S75,105.5,75,105.5s33.7-41.1,33.7-59.7S93.7,12,75,12z M75,51.3
			c-5.4,0-9.8-4.4-9.8-9.8c0-5.4,4.4-9.8,9.8-9.8c5.4,0,9.8,4.4,9.8,9.8C84.9,46.9,80.5,51.3,75,51.3z"/>
		<path fill="#106580" d="M75,108.7l-1.6-1.9c-1.4-1.7-34.2-41.9-34.2-61C39.3,26,55.3,10,75,10c19.7,0,35.7,16,35.7,35.7
			c0,19.1-32.8,59.3-34.2,61L75,108.7z M75,14c-17.5,0-31.7,14.2-31.7,31.7c0,7.2,5.7,19.6,16.5,35.7C66,90.7,72.2,98.7,75,102.3
			c6.6-8.3,31.7-41.1,31.7-56.5C106.7,28.3,92.5,14,75,14z M75,53.3c-6.5,0-11.8-5.3-11.8-11.8S68.5,29.7,75,29.7
			c6.5,0,11.8,5.3,11.8,11.8S81.6,53.3,75,53.3z M75,33.7c-4.3,0-7.8,3.5-7.8,7.8s3.5,7.8,7.8,7.8c4.3,0,7.8-3.5,7.8-7.8
			S79.3,33.7,75,33.7z"/>
	</g>
	<path fill="#D85F58" d="M134.9,100.5c-0.8,0-1.5-0.6-1.5-1.4c-0.1-2.3-0.4-4.5-0.8-6.8c-0.1-0.8,0.4-1.6,1.2-1.7
		c0.8-0.1,1.6,0.4,1.7,1.2c0.4,2.3,0.7,4.7,0.8,7.1C136.5,99.7,135.8,100.4,134.9,100.5C135,100.5,135,100.5,134.9,100.5z
		 M132.6,86.7c-0.6,0-1.2-0.4-1.4-1.1c-0.6-2.2-1.4-4.3-2.3-6.4c-0.3-0.8,0-1.6,0.8-2c0.8-0.3,1.6,0,2,0.8c0.9,2.2,1.8,4.5,2.4,6.7
		c0.2,0.8-0.2,1.6-1,1.9C132.9,86.7,132.7,86.7,132.6,86.7z M127.1,73.9c-0.5,0-1-0.3-1.3-0.8c-1.1-2-2.4-3.9-3.7-5.7
		c-0.5-0.7-0.4-1.6,0.3-2.1c0.7-0.5,1.6-0.4,2.1,0.3c1.4,1.9,2.7,3.9,3.9,6c0.4,0.7,0.2,1.6-0.6,2C127.6,73.8,127.3,73.9,127.1,73.9
		z M118.8,62.7c-0.4,0-0.8-0.2-1.1-0.5c-1.6-1.7-3.2-3.2-5-4.7c-0.6-0.5-0.7-1.5-0.2-2.1c0.5-0.6,1.5-0.7,2.1-0.2
		c1.8,1.5,3.6,3.2,5.2,4.9c0.6,0.6,0.5,1.6-0.1,2.1C119.5,62.5,119.1,62.7,118.8,62.7z M108.1,53.7c-0.3,0-0.6-0.1-0.8-0.2
		c-1.9-1.2-3.9-2.4-5.9-3.4c-0.7-0.4-1-1.3-0.7-2s1.3-1,2-0.7c2.1,1.1,4.2,2.3,6.2,3.6c0.7,0.5,0.9,1.4,0.4,2.1
		C109,53.4,108.6,53.7,108.1,53.7z M95.6,47.4c-0.2,0-0.3,0-0.5-0.1c-2.1-0.8-4.3-1.4-6.5-2c-0.8-0.2-1.3-1-1.1-1.8
		c0.2-0.8,1-1.3,1.8-1.1c2.3,0.5,4.6,1.2,6.9,2.1c0.8,0.3,1.2,1.1,0.9,1.9C96.8,47,96.2,47.4,95.6,47.4z M82,44.2
		c-0.1,0-0.1,0-0.2,0c-2.2-0.3-4.5-0.4-6.8-0.4c-0.8,0-1.5-0.7-1.5-1.5s0.7-1.5,1.5-1.5c2.4,0,4.8,0.1,7.2,0.4
		c0.8,0.1,1.4,0.8,1.3,1.7C83.4,43.6,82.8,44.2,82,44.2z"/>
	<path fill="#D85F58" d="M74.3,165.7c-0.6,0-1.3,0-1.9,0c-0.8,0-1.5-0.7-1.5-1.5c0-0.8,0.7-1.5,1.5-1.5c2.3,0.1,4.6,0,6.8-0.2
		c0.8-0.1,1.6,0.5,1.6,1.4c0.1,0.8-0.5,1.6-1.4,1.6C77.8,165.6,76.1,165.7,74.3,165.7z M65.5,165c-0.1,0-0.1,0-0.2,0
		c-2.4-0.3-4.7-0.8-7-1.5c-0.8-0.2-1.3-1-1.1-1.8c0.2-0.8,1-1.3,1.8-1.1c2.2,0.6,4.4,1.1,6.7,1.4c0.8,0.1,1.4,0.9,1.3,1.7
		C66.8,164.5,66.2,165,65.5,165z M86.4,164.5c-0.7,0-1.3-0.5-1.5-1.2c-0.2-0.8,0.4-1.6,1.2-1.8c2.2-0.5,4.4-1,6.6-1.8
		c0.8-0.3,1.6,0.2,1.9,1c0.3,0.8-0.2,1.6-1,1.9c-2.3,0.7-4.6,1.4-6.9,1.8C86.6,164.5,86.5,164.5,86.4,164.5z M52,161.4
		c-0.2,0-0.4,0-0.6-0.1c-2.2-0.9-4.4-1.9-6.5-3.1c-0.7-0.4-1-1.3-0.6-2c0.4-0.7,1.3-1,2-0.6c2,1.1,4.1,2.1,6.2,2.9
		c0.8,0.3,1.1,1.2,0.8,2C53.2,161.1,52.6,161.4,52,161.4z M99.6,160.1c-0.6,0-1.1-0.3-1.4-0.9c-0.3-0.8,0-1.6,0.7-2
		c2.1-1,4.1-2,6-3.2c0.7-0.4,1.6-0.2,2.1,0.5c0.4,0.7,0.2,1.6-0.5,2.1c-2,1.3-4.2,2.4-6.3,3.4C100.1,160.1,99.8,160.1,99.6,160.1z
		 M39.7,154.7c-0.3,0-0.6-0.1-0.9-0.3c-1.9-1.4-3.8-2.9-5.6-4.5c-0.6-0.6-0.7-1.5-0.1-2.1c0.6-0.6,1.5-0.7,2.1-0.1
		c1.7,1.5,3.5,3,5.3,4.3c0.7,0.5,0.8,1.4,0.4,2.1C40.7,154.5,40.2,154.7,39.7,154.7z M111.5,152.8c-0.4,0-0.9-0.2-1.2-0.6
		c-0.5-0.6-0.4-1.6,0.2-2.1c1.8-1.4,3.5-2.9,5.1-4.5c0.6-0.6,1.5-0.6,2.1,0s0.6,1.5,0,2.1c-1.7,1.7-3.5,3.3-5.4,4.8
		C112.2,152.7,111.8,152.8,111.5,152.8z M29.3,145.4c-0.4,0-0.8-0.2-1.1-0.5c-1.6-1.8-3.1-3.7-4.4-5.6c-0.5-0.7-0.3-1.6,0.4-2.1
		c0.7-0.5,1.6-0.3,2.1,0.4c1.3,1.9,2.7,3.7,4.2,5.4c0.5,0.6,0.5,1.6-0.1,2.1C30,145.3,29.7,145.4,29.3,145.4z M21.4,133.9
		c-0.5,0-1.1-0.3-1.3-0.8c-1.1-2.1-2.1-4.3-3-6.5c-0.3-0.8,0.1-1.6,0.9-1.9c0.8-0.3,1.6,0.1,1.9,0.9c0.8,2.1,1.8,4.2,2.9,6.2
		c0.4,0.7,0.1,1.6-0.6,2C21.8,133.9,21.6,133.9,21.4,133.9z M16.3,120.9c-0.7,0-1.3-0.4-1.5-1.1c-0.6-2.3-1.1-4.7-1.4-7
		c-0.1-0.8,0.5-1.6,1.3-1.7c0.8-0.1,1.6,0.5,1.7,1.3c0.3,2.2,0.8,4.5,1.3,6.7c0.2,0.8-0.3,1.6-1.1,1.8
		C16.5,120.9,16.4,120.9,16.3,120.9z M14.3,107.1c-0.8,0-1.5-0.6-1.5-1.5c0-0.5,0-1,0-1.4c0-1.9,0.1-3.8,0.3-5.7
		c0.1-0.8,0.8-1.4,1.6-1.4c0.8,0.1,1.4,0.8,1.4,1.6c-0.2,1.8-0.3,3.6-0.3,5.5c0,0.5,0,0.9,0,1.4C15.9,106.4,15.2,107.1,14.3,107.1
		C14.4,107.1,14.3,107.1,14.3,107.1z M15.6,93.2c-0.1,0-0.2,0-0.3,0c-0.8-0.2-1.3-1-1.2-1.8c0.5-2.3,1.1-4.7,1.9-6.9
		c0.3-0.8,1.1-1.2,1.9-0.9c0.8,0.3,1.2,1.1,0.9,1.9c-0.7,2.1-1.3,4.4-1.8,6.6C16.9,92.7,16.3,93.2,15.6,93.2z M20.1,80
		c-0.2,0-0.4,0-0.6-0.1c-0.7-0.4-1.1-1.2-0.7-2c1-2.2,2.2-4.3,3.5-6.3c0.4-0.7,1.4-0.9,2.1-0.5c0.7,0.4,0.9,1.4,0.5,2.1
		c-1.2,1.9-2.3,3.9-3.3,6C21.2,79.6,20.7,80,20.1,80z M27.5,68.1c-0.3,0-0.7-0.1-0.9-0.3c-0.6-0.5-0.7-1.5-0.2-2.1
		c1.4-1.7,2.9-3.4,4.5-5c0.6-0.6,1.5-0.6,2.1,0c0.6,0.6,0.6,1.5,0,2.1c-1.5,1.5-2.9,3.1-4.3,4.7C28.4,67.9,28,68.1,27.5,68.1z"/>
	<circle fill="#D85F58" cx="135" cy="100.1" r="5.4"/>
	<circle fill="#D85F58" cx="116.7" cy="147.2" r="5.4"/>
	<ellipse fill="#106580" cx="75" cy="114.3" rx="10" ry="3.1"/>
</g>
</svg>
