<?xml version="1.0" encoding="utf-8"?>
<!-- Generator: Adobe Illustrator 18.0.0, SVG Export Plug-In . SVG Version: 6.00 Build 0)  -->
<!DOCTYPE svg PUBLIC "-//W3C//DTD SVG 1.1//EN" "http://www.w3.org/Graphics/SVG/1.1/DTD/svg11.dtd">
<svg version="1.1" id="Layer_1" xmlns="http://www.w3.org/2000/svg" xmlns:xlink="http://www.w3.org/1999/xlink" x="0px" y="0px"
	 viewBox="0 0 325.7 223.6" enable-background="new 0 0 325.7 223.6" xml:space="preserve">
<g>
	<g>
		<g>
			<polyline fill="#FFFFFF" points="149,135.4 149,146 184.6,146 184.6,135.7 			"/>
			<polygon fill="#106580" points="186.8,148.1 146.9,148.1 146.9,135.4 151.2,135.4 151.2,143.8 182.4,143.8 182.4,135.7 
				186.8,135.7 			"/>
		</g>
		<g>
			<g>
				<polyline fill="#D85F58" points="140.9,174.1 140.9,153.3 193.9,153.3 193.9,174.1 				"/>
				<polygon fill="#106580" points="196.1,176.5 191.7,176.5 191.7,155.5 143.1,155.5 143.1,176.5 138.7,176.5 138.7,151.2 
					196.1,151.2 				"/>
				<g>
					<g>
						<path fill="#FFFFFF" d="M152.6,111.6V92.6c0-4.1,3.3-7.4,7.4-7.4h0c4.1,0,7.4,3.3,7.4,7.4v18.9c0,4.1-3.3,7.4-7.4,7.4h0
							C155.9,118.9,152.6,115.6,152.6,111.6z"/>
						<path fill="#106580" d="M160,121.1c-5.3,0-9.6-4.3-9.6-9.6V92.6c0-5.3,4.3-9.6,9.6-9.6c5.3,0,9.6,4.3,9.6,9.6v18.9
							C169.5,116.8,165.3,121.1,160,121.1z M160,87.5c-2.9,0-5.2,2.3-5.2,5.2v18.9c0,2.9,2.3,5.2,5.2,5.2s5.2-2.3,5.2-5.2V92.6
							C165.2,89.8,162.9,87.5,160,87.5z"/>
					</g>
					<g>
						<path fill="#FFFFFF" d="M137.9,107.6V96.6c0-4.1,3.3-7.4,7.4-7.4h0c4.1,0,7.4,3.3,7.4,7.4v10.9c0,4.1-3.3,7.4-7.4,7.4h0
							C141.2,114.9,137.9,111.6,137.9,107.6z"/>
						<path fill="#106580" d="M145.3,117.1c-5.3,0-9.6-4.3-9.6-9.6V96.6c0-5.3,4.3-9.6,9.6-9.6s9.6,4.3,9.6,9.6v10.9
							C154.8,112.8,150.5,117.1,145.3,117.1z M145.3,91.5c-2.9,0-5.2,2.3-5.2,5.2v10.9c0,2.9,2.3,5.2,5.2,5.2s5.2-2.3,5.2-5.2V96.6
							C150.4,93.8,148.1,91.5,145.3,91.5z"/>
					</g>
					<g>
						<path fill="#FFFFFF" d="M165.7,85V50.7c0-4.1,3.3-7.4,7.4-7.4h0c4.1,0,7.4,3.3,7.4,7.4v42.7"/>
						<path fill="#106580" d="M182.6,93.4h-4.4V50.7c0-2.9-2.3-5.2-5.2-5.2c-2.9,0-5.2,2.3-5.2,5.2V85h-4.4V50.7
							c0-5.3,4.3-9.6,9.6-9.6s9.6,4.3,9.6,9.6V93.4z"/>
					</g>
					<path fill="#F4B500" d="M213.2,65c-0.7-2.8,0.9-5.6,3.6-6.4L214,48.3l-69.5,18.9l2.8,10.4c0.1,0,0.2-0.1,0.3-0.1
						c2.8-0.7,5.6,0.9,6.4,3.6s-0.9,5.6-3.6,6.4c-0.1,0-0.2,0-0.3,0.1l2.8,10.4L222.3,79l-2.8-10.3C216.8,69.4,213.9,67.7,213.2,65z
						"/>
					<g>
						<path fill="#FFFFFF" d="M140.9,113.5v11.6c0,5.8,4.7,10.6,10.6,10.6h3.9"/>
						<path fill="#106580" d="M155.4,137.9h-3.9c-7,0-12.8-5.7-12.8-12.8v-11.6h4.4v11.6c0,4.6,3.8,8.4,8.4,8.4h3.9V137.9z"/>
					</g>
					<g>
						<path fill="#FFFFFF" d="M180.4,95.9V59.2c0-4.1,3.3-7.4,7.4-7.4h0c4.1,0,7.4,3.3,7.4,7.4v51.1v3.2v11.6
							c0,5.8-4.7,10.6-10.6,10.6h-5.9"/>
						<path fill="#106580" d="M184.6,137.9h-5.9v-4.4h5.9c4.6,0,8.4-3.8,8.4-8.4V59.2c0-2.9-2.3-5.2-5.2-5.2c-2.9,0-5.2,2.3-5.2,5.2
							v36.7h-4.4V59.2c0-5.3,4.3-9.6,9.6-9.6s9.6,4.3,9.6,9.6v65.9C197.4,132.1,191.6,137.9,184.6,137.9z"/>
					</g>
					<g>
						<path fill="#FFFFFF" d="M175,112l-12.9-12.9c-2.9-2.9-2.9-7.5,0-10.4v0c2.9-2.9,7.5-2.9,10.4,0l10.8,10.8"/>
						<path fill="#106580" d="M175,114.1c-0.6,0-1.1-0.2-1.5-0.6l-12.9-12.9c-1.8-1.8-2.8-4.2-2.8-6.8s1-5,2.8-6.8
							c1.8-1.8,4.2-2.8,6.8-2.8s5,1,6.8,2.8L185,98c0.9,0.9,0.9,2.2,0,3.1s-2.2,0.9-3.1,0L171,90.2c-1-1-2.3-1.5-3.7-1.5
							s-2.7,0.5-3.7,1.5s-1.5,2.3-1.5,3.7s0.5,2.7,1.5,3.7l12.9,12.9c0.9,0.9,0.9,2.2,0,3.1C176.1,113.9,175.6,114.1,175,114.1z"/>
					</g>
				</g>
			</g>
			<path fill="#E6E7E8" d="M71.2,79.4l-1.1-1c-1.6-1.5-3.2-3-4.8-4.5l-1.1-1l1-1.1c0.9-1,1.1-2.4,0.5-3c-0.6-0.6-1.9-0.1-2.8,0.9
				l-1,1.2l-1.2-1c-1.5-1.3-3.1-2.6-4.6-3.8L55,65.2l0.9-1.2c11.3-14.9,24.4-27.6,37.8-36.8l1.2-0.8l0.9,1.1
				c1.7,2.2,3.3,4.4,4.9,6.6l1,1.4l-1.6,0.8c-0.3,0.2-0.5,0.4-0.5,0.8c-0.1,0.6,0.1,1.4,0.6,2c1,1.3,2.4,1.7,3,1.3l1.3-0.8l0.9,1.2
				c1.6,2.4,3.2,4.9,4.7,7.3l0.9,1.4l-1.5,0.7c-12.5,6.1-25.3,15.8-37.1,28L71.2,79.4z M68.4,72.6c0.9,0.9,1.9,1.7,2.8,2.6
				c11.2-11.4,23.4-20.6,35.4-26.8c-1-1.6-2.1-3.3-3.1-4.9c-0.3,0.1-0.6,0.1-0.9,0.1c-1.8,0-3.7-1-4.9-2.7c-1-1.3-1.3-2.9-1.1-4.3
				c0.1-0.7,0.4-1.3,0.8-1.8c-1-1.4-2.1-2.9-3.2-4.3C81.8,39.3,69.7,51,59.2,64.7c0.8,0.7,1.7,1.4,2.5,2.1c1.9-1.5,4.5-1.6,6-0.2
				C69.3,68.1,69.5,70.5,68.4,72.6z"/>
			<path fill="#E6E7E8" d="M248.1,209.2l-0.9-1.2c-2.1-2.7-4.1-5.5-6.1-8.2l-1-1.3l1.6-0.9c0.7-0.5,0.9-1.1,1-1.6
				c0.2-0.9-0.1-1.9-0.7-2.7c-0.8-1-2-1.7-3.1-1.7c-0.5,0-1,0.1-1.4,0.4l-0.1,0.1l-1.2,0.9l-0.9-1.3c-2-2.9-4.1-5.8-6.1-8.7
				l-0.9-1.3l1.4-0.8c17-10.2,33.8-23,50-37.8l1.1-1l1,1.1c2,2.2,4.1,4.5,6.1,6.7l1,1.1l-1.1,1c-1.4,1.3-1.7,3.4-0.6,4.5
				c0.6,0.6,1.3,0.7,1.8,0.7c0.9,0,1.8-0.4,2.6-1.2l1.1-1.1l1.1,1.1c2,2.1,4,4.2,6,6.2l1,1l-1,1.1c-16,16.8-33,31.7-50.5,44
				L248.1,209.2z M244.3,199.1c1.4,2,2.9,3.9,4.4,5.9c16.5-11.8,32.6-25.9,47.8-41.8c-1.4-1.4-2.7-2.8-4.1-4.2
				c-1.1,0.7-2.3,1.1-3.5,1.1c-1.6,0-3-0.6-4-1.7c-1.9-2-1.9-5.2-0.2-7.6c-1.4-1.5-2.8-3.1-4.2-4.6c-15.6,14.2-31.7,26.4-48,36.3
				c1.4,2.1,2.9,4.2,4.4,6.3c0.6-0.2,1.3-0.3,1.9-0.3c2.1,0,4.2,1.1,5.6,2.9c1.1,1.5,1.5,3.3,1.3,5
				C245.5,197.4,245,198.4,244.3,199.1z"/>
			<path fill="#E6E7E8" d="M86.9,198.2l-53.4-41.7l7.8-10l1.3,1.2c1.3,1,3.4,0.8,4.4-0.5c0.5-0.7,0.7-1.5,0.6-2.3s-0.5-1.6-1.2-2.1
				l-1.4-1l0.9-1.3l6.9-8.8l53.4,41.7l-7.8,10l-1.2-0.9c-1.3-1-3.4-0.8-4.4,0.5c-0.5,0.7-0.7,1.5-0.6,2.3s0.5,1.6,1.2,2.1l1.2,0.9
				L86.9,198.2z M37.8,156l48.6,38l4.2-5.4c-0.7-0.9-1.1-1.9-1.2-3c-0.2-1.6,0.2-3.2,1.3-4.5c1.2-1.5,2.9-2.4,4.8-2.4
				c0.9,0,1.7,0.2,2.5,0.5l4.2-5.4l-48.6-38l-4.2,5.3c0.8,0.9,1.3,2,1.4,3.3c0.2,1.6-0.2,3.2-1.3,4.5c-1.2,1.5-2.9,2.4-4.8,2.4
				c-1,0-1.9-0.2-2.8-0.7L37.8,156z"/>
			<path fill="#E6E7E8" d="M278.2,105.8l-9.2-1.9l0.4-1.5l1.5,0.2v0l-1.5-0.3c0.2-0.8-0.4-1.6-1.2-1.8c-0.8-0.2-1.6,0.4-1.8,1.2
				l-0.2,1.6l-1.6-0.2l-7.6-1.6l9.2-44.3l9.1,1.9l-0.3,1.5c-0.1,0.4,0,0.8,0.2,1.2c0.2,0.3,0.6,0.6,1,0.7c0.8,0.2,1.6-0.4,1.8-1.2
				l0.3-1.5l9.1,1.9L278.2,105.8z M272.5,101.5l3.4,0.7l8-38.4l-3.5-0.7c-1,1.6-2.9,2.5-4.8,2.1c-1.2-0.2-2.2-0.9-2.9-2
				c-0.4-0.6-0.6-1.2-0.7-1.9l-3.5-0.7l-8,38.4l3.4,0.7c0.9-1.7,2.9-2.7,4.9-2.3C270.9,97.9,272.3,99.6,272.5,101.5z"/>
			<path fill="#E6E7E8" d="M267.8,41.4c-0.3,0-0.6-0.1-0.9-0.3c-0.6-0.5-0.8-1.4-0.3-2c0.5-0.7,1.4-0.9,2.1-0.4
				c0.1,0.1,0.2,0.1,0.2,0.2c0.6,0.6,0.6,1.5,0,2.1C268.6,41.3,268.2,41.4,267.8,41.4z M261.3,36.8c-0.2,0-0.5-0.1-0.7-0.2
				c-0.1,0-0.1-0.1-0.2-0.1c-0.7-0.5-0.9-1.4-0.4-2.1c0.4-0.7,1.3-0.9,2-0.4c0.7,0.4,0.9,1.3,0.6,2
				C262.4,36.5,261.8,36.8,261.3,36.8z M116.8,33.1c-0.5,0-1-0.2-1.3-0.7c-0.4-0.7-0.2-1.6,0.4-2c0,0,0.1,0,0.1-0.1
				c0.7-0.4,1.6-0.2,2.1,0.5s0.2,1.6-0.5,2.1C117.3,33,117.1,33.1,116.8,33.1z M254.5,32.5c-0.3,0-0.5-0.1-0.7-0.2
				c-0.7-0.4-1-1.3-0.6-2c0.4-0.7,1.3-1,2-0.7c0.1,0,0.1,0.1,0.2,0.1c0.7,0.5,0.9,1.4,0.4,2.1C255.5,32.3,255,32.5,254.5,32.5z
				 M123.9,29.3c-0.6,0-1.1-0.3-1.3-0.8c-0.4-0.7-0.1-1.6,0.7-2l0,0c0.7-0.4,1.6-0.1,2,0.7c0.4,0.7,0.1,1.6-0.7,2
				C124.3,29.3,124.1,29.3,123.9,29.3z M247.5,28.7c-0.2,0-0.5-0.1-0.7-0.2c-0.7-0.4-1-1.3-0.7-2c0.4-0.7,1.3-1,2-0.7l0,0
				c0.7,0.4,1,1.3,0.7,2C248.6,28.4,248.1,28.7,247.5,28.7z M131.2,26c-0.6,0-1.1-0.3-1.3-0.8c-0.4-0.7-0.1-1.6,0.7-2
				c0.1,0,0.2-0.1,0.3-0.1c0.8-0.2,1.6,0.2,1.9,1c0.2,0.7-0.2,1.5-0.9,1.8C131.6,26,131.4,26,131.2,26z M240.3,25.2
				c-0.2,0-0.3,0-0.5-0.1c-0.1,0-0.1-0.1-0.2-0.1c-0.7-0.4-1-1.3-0.7-2c0.4-0.7,1.2-1,1.9-0.7c0.7,0.3,1.1,1.1,0.8,1.9
				C241.5,24.8,240.9,25.2,240.3,25.2z M138.7,23.1c-0.6,0-1.2-0.4-1.4-1c-0.3-0.8,0.1-1.6,0.9-1.9c0.7-0.3,1.6,0.1,1.9,0.8
				c0.3,0.8,0,1.6-0.8,2c0,0-0.1,0-0.1,0C139,23.1,138.8,23.1,138.7,23.1z M232.9,22.2c-0.2,0-0.4,0-0.5-0.1
				c-0.8-0.3-1.2-1.1-0.9-1.9c0.3-0.8,1.1-1.2,1.9-0.9c0,0,0,0,0.1,0c0.8,0.3,1.2,1.2,0.9,1.9C234,21.9,233.5,22.2,232.9,22.2z
				 M225.3,19.7c-0.1,0-0.2,0-0.4,0c0,0-0.1,0-0.1,0c-0.8-0.3-1.2-1.1-0.9-1.9c0.3-0.8,1.1-1.2,1.9-1c0.8,0.2,1.2,1,1,1.8
				C226.5,19.2,225.9,19.7,225.3,19.7z M154,18.5c-0.7,0-1.3-0.4-1.4-1.1c-0.2-0.8,0.2-1.6,1-1.9c0.1,0,0.1,0,0.2,0
				c0.8-0.1,1.6,0.4,1.7,1.2c0.1,0.8-0.4,1.5-1.1,1.7C154.3,18.5,154.1,18.5,154,18.5z M217.5,17.6c-0.1,0-0.1,0-0.2,0
				c-0.1,0-0.2,0-0.3-0.1c-0.8-0.3-1.2-1.1-0.9-1.9c0.2-0.7,1-1.2,1.8-1c0.7,0.2,1.2,0.9,1.1,1.6C218.9,17.1,218.3,17.6,217.5,17.6z
				 M161.8,16.8c-0.7,0-1.4-0.5-1.5-1.3c-0.1-0.8,0.4-1.5,1.2-1.7c0.7-0.2,1.5,0.3,1.7,1c0.3,0.8-0.2,1.6-0.9,1.9
				c-0.1,0-0.2,0.1-0.3,0.1C162,16.8,161.9,16.8,161.8,16.8z M169.8,15.5c-0.7,0-1.4-0.5-1.5-1.3c-0.1-0.8,0.4-1.6,1.2-1.7
				c0,0,0.1,0,0.1,0c0.8-0.1,1.6,0.5,1.7,1.3c0.1,0.8-0.5,1.6-1.3,1.7C169.9,15.5,169.8,15.5,169.8,15.5z M201.7,15
				c-0.1,0-0.2,0-0.3,0c-0.8-0.1-1.4-0.9-1.2-1.7c0.1-0.8,0.8-1.3,1.6-1.2c0.8,0.1,1.4,0.7,1.4,1.5C203.2,14.3,202.6,15,201.7,15z
				 M177.7,14.7c-0.7,0-1.4-0.5-1.5-1.3c-0.1-0.8,0.4-1.6,1.2-1.7c0.9-0.1,1.8,0.6,1.8,1.5c0,0.8-0.6,1.4-1.4,1.5
				C177.8,14.7,177.8,14.7,177.7,14.7z M193.7,14.4C193.7,14.4,193.7,14.4,193.7,14.4c-0.9,0-1.5-0.7-1.5-1.5c0-0.9,0.8-1.6,1.7-1.5
				c0.8,0.1,1.4,0.9,1.3,1.7C195.1,13.9,194.5,14.4,193.7,14.4z M185.7,14.3c-0.8,0-1.5-0.7-1.5-1.5s0.7-1.5,1.5-1.5h0
				c0.8,0,1.5,0.7,1.5,1.5S186.6,14.3,185.7,14.3z"/>
			<path fill="#E6E7E8" d="M169,212.2c-0.8,0-1.5-0.7-1.5-1.5s0.7-1.5,1.5-1.5h0c0.8,0,1.5,0.7,1.5,1.5S169.8,212.2,169,212.2z
				 M161,212.1c-0.8,0-1.5-0.7-1.5-1.5s0.7-1.5,1.5-1.5h0c0.8,0,1.5,0.7,1.5,1.5S161.8,212.1,161,212.1z M177,211.7
				c-0.8,0-1.5-0.7-1.5-1.5c0-0.8,0.6-1.4,1.3-1.5c0.7-0.1,1.4,0.4,1.6,1.1c0.2,0.8-0.3,1.6-1.1,1.8
				C177.2,211.7,177.1,211.7,177,211.7z M153,211.5c-0.1,0-0.1,0-0.2,0c-0.7-0.1-1.3-0.7-1.3-1.5c0-0.8,0.7-1.5,1.5-1.5
				c0.2,0,0.3,0,0.5,0.1c0.8,0.3,1.2,1.1,0.9,1.9C154.2,211.1,153.6,211.5,153,211.5z M184.9,210.7c-0.6,0-1.2-0.4-1.4-1
				c-0.3-0.8,0.2-1.6,0.9-1.9c0.2-0.1,0.3-0.1,0.5-0.1c0.8,0,1.5,0.7,1.5,1.5c0,0.7-0.5,1.3-1.2,1.5
				C185.1,210.7,185,210.7,184.9,210.7z M145.1,210.2c-0.1,0-0.3,0-0.4-0.1c-0.8-0.2-1.3-1.1-1-1.9c0.2-0.8,1-1.2,1.7-1.1
				c0.7,0.1,1.2,0.7,1.2,1.5C146.6,209.5,145.9,210.2,145.1,210.2z M192.8,209.2c-0.6,0-1.2-0.4-1.4-1c-0.3-0.8,0.2-1.6,0.9-1.9
				c0.2-0.1,0.3-0.1,0.5-0.1c0.8,0,1.5,0.7,1.5,1.5c0,0.7-0.5,1.3-1.2,1.5C192.9,209.2,192.8,209.2,192.8,209.2z M137.3,208.3
				c-0.2,0-0.3,0-0.5-0.1c-0.8-0.3-1.2-1.1-1-1.9c0.2-0.8,1.1-1.2,1.8-1c0,0,0.1,0,0.1,0c0.8,0.3,1.2,1.1,0.9,1.9
				C138.5,207.9,137.9,208.3,137.3,208.3z M200.5,207.2c-0.6,0-1.2-0.4-1.4-1c-0.3-0.8,0.2-1.6,0.9-1.9c0,0,0.1,0,0.1,0
				c0.8-0.2,1.6,0.3,1.8,1.1c0.2,0.8-0.3,1.6-1,1.8C200.8,207.1,200.6,207.2,200.5,207.2z M129.7,205.7c-0.2,0-0.4,0-0.6-0.1
				c-0.7-0.3-1.1-1.1-0.8-1.9c0.3-0.8,1.1-1.2,1.9-0.9c0.1,0,0.2,0.1,0.3,0.1c0.7,0.4,1,1.3,0.6,2
				C130.7,205.5,130.2,205.7,129.7,205.7z M208.1,204.7c-0.6,0-1.2-0.4-1.4-1c-0.3-0.8,0.2-1.6,0.9-1.9c0,0,0.1,0,0.1,0
				c0.8-0.2,1.6,0.3,1.8,1.1c0.2,0.8-0.3,1.6-1,1.8C208.4,204.7,208.3,204.7,208.1,204.7z M122.3,202.6c-0.2,0-0.4,0-0.6-0.1
				c-0.7-0.3-1-1.1-0.8-1.8c0.3-0.8,1.1-1.2,1.9-0.9c0.1,0,0.3,0.1,0.4,0.2c0.7,0.5,0.9,1.4,0.4,2.1
				C123.3,202.4,122.8,202.6,122.3,202.6z M215.6,201.8c-0.6,0-1.2-0.4-1.4-1c-0.2-0.7,0.1-1.5,0.8-1.8c0.7-0.3,1.5-0.1,1.9,0.5
				c0.5,0.7,0.3,1.6-0.4,2.1c-0.1,0.1-0.2,0.1-0.4,0.2C215.9,201.8,215.8,201.8,215.6,201.8z M115.3,198.8c-0.2,0-0.3,0-0.5-0.1
				c-0.1,0-0.3-0.1-0.4-0.2c-0.7-0.5-0.9-1.4-0.4-2.1c0.4-0.7,1.3-0.9,2-0.5c0.6,0.3,1,1.1,0.7,1.8
				C116.5,198.4,115.9,198.8,115.3,198.8z M222.9,198.6c-0.6,0-1.2-0.4-1.4-1c-0.2-0.7,0.1-1.5,0.8-1.8c0.7-0.3,1.5-0.1,1.9,0.5
				c0.5,0.7,0.3,1.6-0.4,2.1c-0.1,0.1-0.2,0.1-0.4,0.2C223.3,198.6,223.1,198.6,222.9,198.6z M108.7,194.2c-0.4,0-0.7-0.1-1-0.4
				c-0.6-0.5-0.7-1.5-0.1-2.1c0.5-0.6,1.4-0.7,2.1-0.2c0,0,0.1,0,0.1,0.1c0.6,0.6,0.7,1.5,0.1,2.1
				C109.5,194.1,109.1,194.2,108.7,194.2z"/>
			<path fill="#E6E7E8" d="M115,130.8c-0.4,0-0.7-0.1-1-0.4c-0.6-0.5-0.6-1.4-0.1-2c0.5-0.6,1.5-0.8,2.1-0.2
				c0.1,0.1,0.2,0.1,0.2,0.2c0.5,0.6,0.4,1.6-0.2,2.1C115.7,130.6,115.3,130.8,115,130.8z M108.9,125.5c-0.3,0-0.6-0.1-0.8-0.3
				c0,0-0.1-0.1-0.1-0.1c-0.6-0.5-0.8-1.5-0.2-2.1c0.5-0.6,1.4-0.7,2.1-0.3c0.6,0.5,0.8,1.4,0.4,2
				C109.9,125.3,109.4,125.5,108.9,125.5z M102.5,120.8c-0.3,0-0.6-0.1-0.9-0.3c-0.7-0.5-0.8-1.4-0.4-2.1c0.5-0.7,1.4-0.9,2.1-0.4
				c0,0,0.1,0.1,0.1,0.1c0.6,0.5,0.8,1.5,0.2,2.1C103.3,120.6,102.9,120.8,102.5,120.8z M19,120.2c-0.5,0-1-0.2-1.2-0.7
				c-0.5-0.7-0.3-1.6,0.4-2.1c0.1-0.1,0.2-0.1,0.4-0.2c0.8-0.3,1.6,0.2,1.9,0.9c0.2,0.7-0.1,1.5-0.7,1.8
				C19.4,120.2,19.2,120.2,19,120.2z M95.6,116.7c-0.2,0-0.3,0-0.5-0.1c-0.1,0-0.3-0.1-0.4-0.2c-0.7-0.5-0.9-1.4-0.4-2.1
				c0.4-0.7,1.3-0.9,2-0.5c0.6,0.3,1,1.1,0.7,1.8C96.8,116.3,96.2,116.7,95.6,116.7z M26.1,116.6c-0.6,0-1.2-0.4-1.4-1
				c-0.2-0.7,0.1-1.6,0.8-1.9c0.7-0.3,1.5,0,1.9,0.6c0.4,0.7,0.2,1.6-0.6,2c-0.1,0-0.2,0.1-0.3,0.1
				C26.4,116.5,26.3,116.6,26.1,116.6z M33.5,113.5c-0.6,0-1.2-0.4-1.4-1.1c-0.2-0.8,0.2-1.6,1-1.9c0,0,0.1,0,0.1,0
				c0.8-0.2,1.6,0.2,1.9,1c0.2,0.8-0.2,1.6-1,1.9C33.8,113.5,33.6,113.5,33.5,113.5z M88.3,113.3c-0.2,0-0.4,0-0.6-0.1
				c-0.7-0.3-1.1-1.1-0.8-1.9c0.3-0.8,1.1-1.2,1.9-0.9c0.1,0,0.2,0.1,0.3,0.1c0.7,0.4,1,1.3,0.6,2C89.3,113.1,88.8,113.3,88.3,113.3
				z M80.7,110.8c-0.2,0-0.3,0-0.5-0.1c-0.8-0.3-1.2-1.1-1-1.9c0.2-0.8,1.1-1.2,1.8-1c0,0,0.1,0,0.1,0c0.8,0.3,1.2,1.1,0.9,1.9
				C81.9,110.4,81.4,110.8,80.7,110.8z M49,109.4c-0.7,0-1.3-0.4-1.4-1.1c-0.2-0.8,0.2-1.6,1-1.9c0.1,0,0.3-0.1,0.4-0.1
				c0.8,0,1.5,0.7,1.5,1.5c0,0.7-0.5,1.4-1.2,1.5C49.2,109.4,49.1,109.4,49,109.4z M72.9,109.1c-0.1,0-0.3,0-0.4-0.1
				c-0.8-0.2-1.3-1.1-1-1.9c0.2-0.8,1-1.2,1.7-1.1c0.7,0.1,1.2,0.7,1.2,1.5C74.4,108.5,73.7,109.1,72.9,109.1z M56.9,108.5
				c-0.8,0-1.5-0.7-1.5-1.5c0-0.8,0.6-1.4,1.3-1.5c0.7-0.1,1.4,0.3,1.6,1c0.3,0.8-0.2,1.6-0.9,1.9C57.3,108.4,57.1,108.5,56.9,108.5
				z M64.9,108.3c-0.8,0-1.5-0.7-1.5-1.5c0-0.8,0.7-1.5,1.5-1.5h0c0.8,0,1.5,0.7,1.5,1.5C66.4,107.7,65.8,108.3,64.9,108.3z"/>
			<path fill="#E6E7E8" d="M264.1,126.9c-0.1,0-0.1,0-0.2,0c-0.8-0.1-1.3-0.7-1.3-1.5c0-0.8,0.7-1.5,1.5-1.5c0.1,0,0.3,0,0.4,0
				c0.8,0.2,1.3,1,1.1,1.8C265.4,126.5,264.8,126.9,264.1,126.9z M272.1,126.8c-0.8,0-1.5-0.7-1.5-1.5c0-0.8,0.6-1.4,1.3-1.5
				c0.7-0.1,1.4,0.4,1.6,1.1c0.2,0.8-0.3,1.6-1.1,1.8C272.4,126.7,272.3,126.8,272.1,126.8z M256.2,125.8c-0.2,0-0.3,0-0.5-0.1
				c-0.8-0.3-1.2-1.1-0.9-1.9c0.2-0.7,1-1.1,1.7-1c0.7,0.1,1.2,0.7,1.2,1.5C257.7,125.1,257.1,125.8,256.2,125.8z M280,125.3
				c-0.6,0-1.2-0.4-1.4-1c-0.3-0.8,0.2-1.6,0.9-1.9c0,0,0.1,0,0.1,0c0.8-0.2,1.6,0.3,1.8,1.1c0.2,0.8-0.3,1.6-1,1.8
				C280.3,125.3,280.1,125.3,280,125.3z M248.6,123.5c-0.2,0-0.4,0-0.6-0.1c-0.7-0.3-1.1-1.1-0.9-1.9c0.3-0.8,1.1-1.2,1.9-0.9
				c0.1,0,0.1,0.1,0.2,0.1c0.7,0.4,1,1.3,0.7,2C249.6,123.2,249.1,123.5,248.6,123.5z M287.5,122.7c-0.6,0-1.2-0.4-1.4-1
				c-0.2-0.7,0.1-1.5,0.8-1.8c0.7-0.3,1.5-0.1,1.9,0.5c0.5,0.7,0.3,1.6-0.4,2.1c-0.1,0.1-0.2,0.1-0.4,0.2
				C287.9,122.6,287.7,122.7,287.5,122.7z M241.3,120.2c-0.2,0-0.3,0-0.5-0.1c-0.1,0-0.3-0.1-0.4-0.2c-0.7-0.5-0.9-1.4-0.4-2.1
				c0.4-0.7,1.3-0.9,2-0.5c0.6,0.3,1,1.1,0.7,1.8C242.5,119.8,241.9,120.2,241.3,120.2z M294.7,119c-0.5,0-1-0.2-1.2-0.7
				c-0.5-0.7-0.3-1.6,0.4-2.1c0.1-0.1,0.2-0.1,0.4-0.2c0.8-0.3,1.6,0.2,1.9,0.9c0.2,0.7-0.1,1.5-0.7,1.8
				C295.2,119,294.9,119,294.7,119z M234.4,116c-0.3,0-0.6-0.1-0.9-0.3c-0.6-0.5-0.8-1.4-0.3-2c0.5-0.7,1.4-0.9,2.1-0.4
				c0.1,0.1,0.2,0.1,0.2,0.2c0.6,0.6,0.6,1.5,0,2.1C235.2,115.9,234.8,116,234.4,116z M301.3,114.6c-0.5,0-1-0.2-1.2-0.7
				c-0.4-0.7-0.3-1.5,0.3-2c0.6-0.5,1.4-0.4,2,0.1c0.6,0.6,0.6,1.5,0,2.1c-0.1,0.1-0.2,0.1-0.2,0.2
				C301.9,114.5,301.6,114.6,301.3,114.6z M228.1,111.1c-0.4,0-0.7-0.1-1-0.4c-0.5-0.5-0.7-1.3-0.2-1.9c0.5-0.7,1.4-0.9,2.1-0.4
				c0.2,0.1,0.3,0.3,0.4,0.4c0.5,0.7,0.3,1.6-0.4,2.1C228.7,111,228.4,111.1,228.1,111.1z M307.5,109.5c-0.5,0-1-0.2-1.2-0.7
				c-0.4-0.6-0.3-1.5,0.2-1.9c0.5-0.5,1.3-0.5,1.8-0.1c0.7,0.5,0.9,1.4,0.4,2.1c-0.1,0.2-0.3,0.3-0.4,0.4
				C308.1,109.4,307.8,109.5,307.5,109.5z M222.3,105.5c-0.4,0-0.8-0.2-1.1-0.5c0,0,0-0.1-0.1-0.1c-0.5-0.6-0.4-1.6,0.2-2.1
				c0.6-0.5,1.5-0.4,2.1,0.2c0.5,0.6,0.5,1.5-0.1,2.1C223.1,105.4,222.7,105.5,222.3,105.5z M313.2,103.9c-0.3,0-0.7-0.1-0.9-0.3
				c-0.6-0.5-0.8-1.5-0.2-2.1c0.1-0.1,0.1-0.2,0.2-0.2c0.6-0.5,1.6-0.4,2.1,0.2c0.5,0.6,0.5,1.5-0.1,2
				C314,103.7,313.6,103.9,313.2,103.9z"/>
		</g>
	</g>
	<path fill="#E6E7E8" d="M146.3,20.7c-0.7,0-1.3-0.4-1.4-1.1c-0.2-0.8,0.2-1.6,1-1.9c0.1,0,0.1,0,0.2,0c0.8-0.1,1.6,0.4,1.7,1.2
		c0.1,0.8-0.4,1.5-1.1,1.7C146.5,20.7,146.4,20.7,146.3,20.7z"/>
	<path fill="#E6E7E8" d="M41.2,111.1c-0.7,0-1.3-0.4-1.4-1.1c-0.2-0.8,0.2-1.6,1-1.9c0.1,0,0.1,0,0.2,0c0.8-0.1,1.6,0.4,1.7,1.2
		c0.1,0.8-0.4,1.5-1.1,1.7C41.4,111.1,41.3,111.1,41.2,111.1z"/>
	<path fill="#E6E7E8" d="M209.7,16.1c-0.7,0-1.3-0.4-1.4-1.1c-0.2-0.8,0.2-1.6,1-1.9c0.1,0,0.1,0,0.2,0c0.8-0.1,1.6,0.4,1.7,1.2
		c0.1,0.8-0.4,1.5-1.1,1.7C209.9,16,209.8,16.1,209.7,16.1z"/>
</g>
</svg>
