<?xml version="1.0" encoding="utf-8"?>
<!-- Generator: Adobe Illustrator 18.0.0, SVG Export Plug-In . SVG Version: 6.00 Build 0)  -->
<!DOCTYPE svg PUBLIC "-//W3C//DTD SVG 1.1//EN" "http://www.w3.org/Graphics/SVG/1.1/DTD/svg11.dtd">
<svg version="1.1" id="Layer_1" xmlns="http://www.w3.org/2000/svg" xmlns:xlink="http://www.w3.org/1999/xlink" x="0px" y="0px"
	 viewBox="0 0 142.1 189.3" enable-background="new 0 0 142.1 189.3" xml:space="preserve">
<g>
	<g>
		<g>
			<path fill="#FFFFFF" d="M118.4,10.7h-17.2c0,5.8-4.7,10.4-10.4,10.4s-10.4-4.7-10.4-10.4H63.1c0,5.8-4.7,10.4-10.4,10.4v115
				c5.8,0,10.4,4.7,10.4,10.4h17.2c0-5.8,4.7-10.4,10.4-10.4s10.4,4.7,10.4,10.4h17.2c0-5.8,4.7-10.4,10.4-10.4v-18.7V116V21.1
				C123.1,21.1,118.4,16.5,118.4,10.7z"/>
			<path fill="#106580" d="M118.4,148.8h-17.2c-1.2,0-2.2-1-2.2-2.2c0-4.5-3.7-8.3-8.3-8.3s-8.3,3.7-8.3,8.3c0,1.2-1,2.2-2.2,2.2
				H63.1c-1.2,0-2.2-1-2.2-2.2c0-4.5-3.7-8.3-8.3-8.3c-1.2,0-2.2-1-2.2-2.2v-115c0-1.2,1-2.2,2.2-2.2c4.5,0,8.3-3.7,8.3-8.3
				c0-1.2,1-2.2,2.2-2.2h17.2c1.2,0,2.2,1,2.2,2.2c0,4.5,3.7,8.3,8.3,8.3s8.3-3.7,8.3-8.3c0-1.2,1-2.2,2.2-2.2h17.2
				c1.2,0,2.2,1,2.2,2.2c0,4.5,3.7,8.3,8.3,8.3c1.2,0,2.2,1,2.2,2.2v115c0,1.2-1,2.2-2.2,2.2c-4.5,0-8.3,3.7-8.3,8.3
				C120.6,147.8,119.6,148.8,118.4,148.8z M103.2,144.4h13.2c0.9-5.2,5-9.3,10.2-10.2v-111c-5.2-0.9-9.3-5-10.2-10.2h-13.2
				c-1,5.9-6.2,10.4-12.4,10.4c-6.2,0-11.4-4.5-12.4-10.4H65.1c-0.9,5.2-5,9.3-10.2,10.2v111c5.2,0.9,9.3,5,10.2,10.2h13.2
				c1-5.9,6.2-10.4,12.4-10.4C97,134,102.2,138.5,103.2,144.4z"/>
		</g>
		<g>
			<path fill="#2F92C8" d="M57.7,79.4V132c4.5,1.5,8.1,5.1,9.6,9.6h8.8c2.1-6.1,7.8-10.4,14.6-10.4s12.5,4.4,14.6,10.4h8.8
				c1.5-4.5,5.1-8.1,9.6-9.6V79.4H57.7z"/>
		</g>
		<g>
			<g>
				<polygon fill="#FFFFFF" points="90.8,90.8 78.8,97.1 81.1,83.7 71.4,74.3 84.8,72.3 90.8,60.2 96.8,72.3 110.1,74.3 100.5,83.7 
					102.7,97.1 				"/>
				<path fill="#106580" d="M78.8,99.3c-0.5,0-0.9-0.1-1.3-0.4c-0.7-0.5-1-1.3-0.9-2.1l2.1-12.2l-8.9-8.6c-0.6-0.6-0.8-1.4-0.6-2.2
					c0.3-0.8,0.9-1.4,1.8-1.5l12.3-1.8l5.5-11.1c0.4-0.7,1.1-1.2,2-1.2l0,0c0.8,0,1.6,0.5,2,1.2l5.5,11.1l12.3,1.8
					c0.8,0.1,1.5,0.7,1.8,1.5s0,1.7-0.6,2.2l-8.9,8.6l2.1,12.2c0.1,0.8-0.2,1.6-0.9,2.1s-1.6,0.6-2.3,0.2l-11-5.8l-11,5.8
					C79.5,99.2,79.1,99.3,78.8,99.3z M90.8,88.6c0.3,0,0.7,0.1,1,0.3l8.1,4.2l-1.5-9c-0.1-0.7,0.1-1.4,0.6-1.9l6.5-6.4l-9-1.3
					c-0.7-0.1-1.3-0.6-1.6-1.2l-4-8.2l-4,8.2c-0.3,0.6-0.9,1.1-1.6,1.2l-9,1.3l6.5,6.4c0.5,0.5,0.8,1.2,0.6,1.9l-1.5,9l8.1-4.2
					C90.1,88.7,90.4,88.6,90.8,88.6z"/>
			</g>
			<polygon fill="#F4B500" points="90.8,86.4 84.1,89.9 85.4,82.5 80,77.2 87.4,76.1 90.8,69.4 94.1,76.1 101.6,77.2 96.2,82.5 
				97.4,89.9 			"/>
		</g>
		<g>
			<g>
				<line fill="#FFFFFF" x1="58.3" y1="34" x2="123.2" y2="34"/>
				<g>
					<rect x="58.3" y="32.9" fill="#106580" width="2.8" height="2.3"/>
					<path fill="#106580" d="M116.9,35.2h-5.8v-2.3h5.8V35.2z M107.6,35.2h-5.8v-2.3h5.8V35.2z M98.3,35.2h-5.8v-2.3h5.8V35.2z
						 M89,35.2h-5.8v-2.3H89V35.2z M79.7,35.2h-5.8v-2.3h5.8V35.2z M70.4,35.2h-5.8v-2.3h5.8V35.2z"/>
					<rect x="120.4" y="32.9" fill="#106580" width="2.8" height="2.3"/>
				</g>
			</g>
			<g>
				<rect x="58.3" y="122.1" fill="#FFFFFF" width="2.8" height="2.3"/>
				<path fill="#FFFFFF" d="M116.9,124.4h-5.8v-2.3h5.8V124.4z M107.6,124.4h-5.8v-2.3h5.8V124.4z M98.3,124.4h-5.8v-2.3h5.8V124.4z
					 M89,124.4h-5.8v-2.3H89V124.4z M79.7,124.4h-5.8v-2.3h5.8V124.4z M70.4,124.4h-5.8v-2.3h5.8V124.4z"/>
				<rect x="120.4" y="122.1" fill="#FFFFFF" width="2.8" height="2.3"/>
			</g>
		</g>
	</g>
	<g>
		<g>
			<path fill="#FFFFFF" d="M79,42.7H61.8c0,5.8-4.7,10.4-10.4,10.4s-10.4-4.7-10.4-10.4H23.8c0,5.8-4.7,10.4-10.4,10.4v115
				c5.8,0,10.4,4.7,10.4,10.4h17.2c0-5.8,4.7-10.4,10.4-10.4s10.4,4.7,10.4,10.4H79c0-5.8,4.7-10.4,10.4-10.4v-18.7V148V53.1
				C83.7,53.1,79,48.5,79,42.7z"/>
			<path fill="#106580" d="M79,180.8H61.8c-1.2,0-2.2-1-2.2-2.2c0-4.5-3.7-8.3-8.3-8.3s-8.3,3.7-8.3,8.3c0,1.2-1,2.2-2.2,2.2H23.8
				c-1.2,0-2.2-1-2.2-2.2c0-4.5-3.7-8.3-8.3-8.3c-1.2,0-2.2-1-2.2-2.2v-115c0-1.2,1-2.2,2.2-2.2c4.5,0,8.3-3.7,8.3-8.3
				c0-1.2,1-2.2,2.2-2.2h17.2c1.2,0,2.2,1,2.2,2.2c0,4.5,3.7,8.3,8.3,8.3s8.3-3.7,8.3-8.3c0-1.2,1-2.2,2.2-2.2H79
				c1.2,0,2.2,1,2.2,2.2c0,4.5,3.7,8.3,8.3,8.3c1.2,0,2.2,1,2.2,2.2v115c0,1.2-1,2.2-2.2,2.2c-4.5,0-8.3,3.7-8.3,8.3
				C81.2,179.8,80.2,180.8,79,180.8z M63.8,176.4H77c0.9-5.2,5-9.3,10.2-10.2v-111c-5.2-0.9-9.3-5-10.2-10.2H63.8
				c-1,5.9-6.2,10.4-12.4,10.4S40,50.8,38.9,44.9H25.8c-0.9,5.2-5,9.3-10.2,10.2v111c5.2,0.9,9.3,5,10.2,10.2h13.2
				c1-5.9,6.2-10.4,12.4-10.4S62.8,170.5,63.8,176.4z"/>
		</g>
		<g>
			<path fill="#D85F58" d="M18.3,111.4V164c4.5,1.5,8.1,5.1,9.6,9.6h8.8c2.1-6.1,7.8-10.4,14.6-10.4s12.5,4.4,14.6,10.4h8.8
				c1.5-4.5,5.1-8.1,9.6-9.6v-52.5H18.3z"/>
		</g>
		<g>
			<g>
				<polygon fill="#FFFFFF" points="51.4,122.8 39.4,129.1 41.7,115.7 32,106.3 45.4,104.3 51.4,92.2 57.4,104.3 70.8,106.3 
					61.1,115.7 63.4,129.1 				"/>
				<path fill="#106580" d="M39.4,131.3c-0.5,0-0.9-0.1-1.3-0.4c-0.7-0.5-1-1.3-0.9-2.1l2.1-12.2l-8.9-8.6c-0.6-0.6-0.8-1.4-0.6-2.2
					c0.3-0.8,0.9-1.4,1.8-1.5l12.3-1.8l5.5-11.1c0.4-0.7,1.1-1.2,2-1.2s1.6,0.5,2,1.2l5.5,11.1l12.3,1.8c0.8,0.1,1.5,0.7,1.8,1.5
					c0.3,0.8,0,1.7-0.6,2.2l-8.9,8.6l2.1,12.2c0.1,0.8-0.2,1.6-0.9,2.1c-0.7,0.5-1.6,0.6-2.3,0.2l-11-5.8l-11,5.8
					C40.1,131.2,39.7,131.3,39.4,131.3z M36.7,107.8l6.5,6.4c0.5,0.5,0.8,1.2,0.6,1.9l-1.5,9l8.1-4.2c0.6-0.3,1.4-0.3,2,0l8.1,4.2
					l-1.5-9c-0.1-0.7,0.1-1.4,0.6-1.9l6.5-6.4l-9-1.3c-0.7-0.1-1.3-0.5-1.6-1.2l-4-8.2l-4,8.2c-0.3,0.6-0.9,1.1-1.6,1.2L36.7,107.8z
					"/>
			</g>
			<polygon fill="#F4B500" points="51.4,118.4 44.7,121.9 46,114.5 40.6,109.2 48,108.1 51.4,101.4 54.7,108.1 62.2,109.2 
				56.8,114.5 58,121.9 			"/>
		</g>
		<g>
			<g>
				<line fill="#FFFFFF" x1="19" y1="66" x2="83.8" y2="66"/>
				<g>
					<rect x="19" y="64.9" fill="#106580" width="2.8" height="2.3"/>
					<path fill="#106580" d="M77.5,67.2h-5.8v-2.3h5.8V67.2z M68.2,67.2h-5.8v-2.3h5.8V67.2z M58.9,67.2h-5.8v-2.3h5.8V67.2z
						 M49.6,67.2h-5.8v-2.3h5.8V67.2z M40.3,67.2h-5.8v-2.3h5.8V67.2z M31.1,67.2h-5.8v-2.3h5.8V67.2z"/>
					<rect x="81" y="64.9" fill="#106580" width="2.8" height="2.3"/>
				</g>
			</g>
			<g>
				<rect x="19" y="154.1" fill="#FFFFFF" width="2.8" height="2.3"/>
				<path fill="#FFFFFF" d="M77.5,156.4h-5.8v-2.3h5.8V156.4z M68.2,156.4h-5.8v-2.3h5.8V156.4z M58.9,156.4h-5.8v-2.3h5.8V156.4z
					 M49.6,156.4h-5.8v-2.3h5.8V156.4z M40.3,156.4h-5.8v-2.3h5.8V156.4z M31.1,156.4h-5.8v-2.3h5.8V156.4z"/>
				<rect x="81" y="154.1" fill="#FFFFFF" width="2.8" height="2.3"/>
			</g>
		</g>
	</g>
</g>
</svg>
